<?xml version="1.0" encoding="UTF-8" standalone="no"?>
<!DOCTYPE svg PUBLIC "-//W3C//DTD SVG 1.1//EN" "http://www.w3.org/Graphics/SVG/1.1/DTD/svg11.dtd">
<svg width="100%" height="100%" viewBox="0 0 32 32" version="1.1" xmlns="http://www.w3.org/2000/svg" xmlns:xlink="http://www.w3.org/1999/xlink" xml:space="preserve" xmlns:serif="http://www.serif.com/" style="fill-rule:evenodd;clip-rule:evenodd;stroke-linejoin:round;stroke-miterlimit:2;">
    <g transform="matrix(0.00270345,0,0,-0.00270345,-0.220685,33.2475)">
        <g transform="matrix(33.9407,0,0,-33.9407,-4815.22,25148.9)">
            <path d="M145,648C140.431,679.421 157.668,699.908 192,694C277.935,679.212 414.544,548.806 427,456C431.77,420.457 411.676,406.956 381,412C285.948,427.631 156.429,569.4 145,648ZM170,628C161.673,648.398 157.97,673.826 180,676C266.592,668.843 399.489,527.684 409,453C411.635,432.308 402.864,426.33 384,430C309.777,444.439 204.562,543.337 170,628Z" style="fill:rgb(57,55,55);"/>
        </g>
        <g transform="matrix(33.9407,0,0,-33.9407,-5188.56,25148.9)">
            <text x="295px" y="650px" style="font-family:'Montserrat-Bold', 'Montserrat';font-weight:700;font-size:142px;fill:rgb(75,75,75);">BC</text>
        </g>
    </g>
</svg>
